<?xml version="1.0" encoding="utf-8"?>
<!-- Generator: Adobe Illustrator 16.0.0, SVG Export Plug-In . SVG Version: 6.00 Build 0)  -->
<!DOCTYPE svg PUBLIC "-//W3C//DTD SVG 1.1//EN" "http://www.w3.org/Graphics/SVG/1.1/DTD/svg11.dtd">
<svg version="1.1" id="Layer_1" xmlns="http://www.w3.org/2000/svg" xmlns:xlink="http://www.w3.org/1999/xlink" x="0px" y="0px"
	 width="1408px" height="1792px" viewBox="0 0 1408 1792" enable-background="new 0 0 1408 1792" xml:space="preserve">
<g>
	<defs>
		<rect id="SVGID_1_" width="1408" height="1792"/>
	</defs>
	<clipPath id="SVGID_2_">
		<use xlink:href="#SVGID_1_"  overflow="visible"/>
	</clipPath>
	<path clip-path="url(#SVGID_2_)" fill="#0A2E40" d="M384,1312v64c0,8.667-3.167,16.167-9.5,22.5s-13.833,9.5-22.5,9.5h-64
		c-8.667,0-16.167-3.167-22.5-9.5s-9.5-13.833-9.5-22.5v-64c0-8.667,3.167-16.167,9.5-22.5s13.833-9.5,22.5-9.5h64
		c8.667,0,16.167,3.167,22.5,9.5S384,1303.333,384,1312 M384,1056v64c0,8.667-3.167,16.167-9.5,22.5s-13.833,9.5-22.5,9.5h-64
		c-8.667,0-16.167-3.167-22.5-9.5s-9.5-13.833-9.5-22.5v-64c0-8.667,3.167-16.167,9.5-22.5s13.833-9.5,22.5-9.5h64
		c8.667,0,16.167,3.167,22.5,9.5S384,1047.333,384,1056 M640,1056v64c0,8.667-3.167,16.167-9.5,22.5s-13.833,9.5-22.5,9.5h-64
		c-8.667,0-16.167-3.167-22.5-9.5s-9.5-13.833-9.5-22.5v-64c0-8.667,3.167-16.167,9.5-22.5s13.833-9.5,22.5-9.5h64
		c8.667,0,16.167,3.167,22.5,9.5S640,1047.333,640,1056 M384,800v64c0,8.667-3.167,16.167-9.5,22.5S360.667,896,352,896h-64
		c-8.667,0-16.167-3.167-22.5-9.5S256,872.667,256,864v-64c0-8.667,3.167-16.167,9.5-22.5s13.833-9.5,22.5-9.5h64
		c8.667,0,16.167,3.167,22.5,9.5S384,791.333,384,800 M1152,1312v64c0,8.667-3.167,16.167-9.5,22.5s-13.833,9.5-22.5,9.5h-64
		c-8.667,0-16.167-3.167-22.5-9.5s-9.5-13.833-9.5-22.5v-64c0-8.667,3.167-16.167,9.5-22.5s13.833-9.5,22.5-9.5h64
		c8.667,0,16.167,3.167,22.5,9.5S1152,1303.333,1152,1312 M896,1056v64c0,8.667-3.167,16.167-9.5,22.5s-13.833,9.5-22.5,9.5h-64
		c-8.667,0-16.167-3.167-22.5-9.5s-9.5-13.833-9.5-22.5v-64c0-8.667,3.167-16.167,9.5-22.5s13.833-9.5,22.5-9.5h64
		c8.667,0,16.167,3.167,22.5,9.5S896,1047.333,896,1056 M640,800v64c0,8.667-3.167,16.167-9.5,22.5S616.667,896,608,896h-64
		c-8.667,0-16.167-3.167-22.5-9.5S512,872.667,512,864v-64c0-8.667,3.167-16.167,9.5-22.5s13.833-9.5,22.5-9.5h64
		c8.667,0,16.167,3.167,22.5,9.5S640,791.333,640,800 M384,544v64c0,8.667-3.167,16.167-9.5,22.5S360.667,640,352,640h-64
		c-8.667,0-16.167-3.167-22.5-9.5S256,616.667,256,608v-64c0-8.667,3.167-16.167,9.5-22.5s13.833-9.5,22.5-9.5h64
		c8.667,0,16.167,3.167,22.5,9.5S384,535.333,384,544 M1152,1056v64c0,8.667-3.167,16.167-9.5,22.5s-13.833,9.5-22.5,9.5h-64
		c-8.667,0-16.167-3.167-22.5-9.5s-9.5-13.833-9.5-22.5v-64c0-8.667,3.167-16.167,9.5-22.5s13.833-9.5,22.5-9.5h64
		c8.667,0,16.167,3.167,22.5,9.5S1152,1047.333,1152,1056 M896,800v64c0,8.667-3.167,16.167-9.5,22.5S872.667,896,864,896h-64
		c-8.667,0-16.167-3.167-22.5-9.5S768,872.667,768,864v-64c0-8.667,3.167-16.167,9.5-22.5s13.833-9.5,22.5-9.5h64
		c8.667,0,16.167,3.167,22.5,9.5S896,791.333,896,800 M640,544v64c0,8.667-3.167,16.167-9.5,22.5S616.667,640,608,640h-64
		c-8.667,0-16.167-3.167-22.5-9.5S512,616.667,512,608v-64c0-8.667,3.167-16.167,9.5-22.5s13.833-9.5,22.5-9.5h64
		c8.667,0,16.167,3.167,22.5,9.5S640,535.333,640,544 M384,288v64c0,8.667-3.167,16.167-9.5,22.5S360.667,384,352,384h-64
		c-8.667,0-16.167-3.167-22.5-9.5S256,360.667,256,352v-64c0-8.667,3.167-16.167,9.5-22.5s13.833-9.5,22.5-9.5h64
		c8.667,0,16.167,3.167,22.5,9.5S384,279.333,384,288 M1152,800v64c0,8.667-3.167,16.167-9.5,22.5s-13.833,9.5-22.5,9.5h-64
		c-8.667,0-16.167-3.167-22.5-9.5s-9.5-13.833-9.5-22.5v-64c0-8.667,3.167-16.167,9.5-22.5s13.833-9.5,22.5-9.5h64
		c8.667,0,16.167,3.167,22.5,9.5S1152,791.333,1152,800 M896,544v64c0,8.667-3.167,16.167-9.5,22.5S872.667,640,864,640h-64
		c-8.667,0-16.167-3.167-22.5-9.5S768,616.667,768,608v-64c0-8.667,3.167-16.167,9.5-22.5s13.833-9.5,22.5-9.5h64
		c8.667,0,16.167,3.167,22.5,9.5S896,535.333,896,544 M640,288v64c0,8.667-3.167,16.167-9.5,22.5S616.667,384,608,384h-64
		c-8.667,0-16.167-3.167-22.5-9.5S512,360.667,512,352v-64c0-8.667,3.167-16.167,9.5-22.5s13.833-9.5,22.5-9.5h64
		c8.667,0,16.167,3.167,22.5,9.5S640,279.333,640,288 M1152,544v64c0,8.667-3.167,16.167-9.5,22.5s-13.833,9.5-22.5,9.5h-64
		c-8.667,0-16.167-3.167-22.5-9.5s-9.5-13.833-9.5-22.5v-64c0-8.667,3.167-16.167,9.5-22.5s13.833-9.5,22.5-9.5h64
		c8.667,0,16.167,3.167,22.5,9.5S1152,535.333,1152,544 M896,288v64c0,8.667-3.167,16.167-9.5,22.5S872.667,384,864,384h-64
		c-8.667,0-16.167-3.167-22.5-9.5S768,360.667,768,352v-64c0-8.667,3.167-16.167,9.5-22.5s13.833-9.5,22.5-9.5h64
		c8.667,0,16.167,3.167,22.5,9.5S896,279.333,896,288 M1152,288v64c0,8.667-3.167,16.167-9.5,22.5s-13.833,9.5-22.5,9.5h-64
		c-8.667,0-16.167-3.167-22.5-9.5s-9.5-13.833-9.5-22.5v-64c0-8.667,3.167-16.167,9.5-22.5s13.833-9.5,22.5-9.5h64
		c8.667,0,16.167,3.167,22.5,9.5S1152,279.333,1152,288 M896,1664h384V128H128v1536h384v-224c0-8.667,3.167-16.167,9.5-22.5
		s13.833-9.5,22.5-9.5h320c8.667,0,16.167,3.167,22.5,9.5s9.5,13.833,9.5,22.5V1664z M1408,64v1664c0,17.333-6.333,32.333-19,45
		s-27.667,19-45,19H64c-17.333,0-32.333-6.333-45-19s-19-27.667-19-45V64c0-17.333,6.333-32.333,19-45S46.667,0,64,0h1280
		c17.333,0,32.333,6.333,45,19S1408,46.667,1408,64"/>
</g>
</svg>
