<?xml version="1.0" encoding="utf-8"?>
<!-- Generator: Adobe Illustrator 16.0.0, SVG Export Plug-In . SVG Version: 6.00 Build 0)  -->
<!DOCTYPE svg PUBLIC "-//W3C//DTD SVG 1.1//EN" "http://www.w3.org/Graphics/SVG/1.1/DTD/svg11.dtd">
<svg version="1.1" id="Layer_1" xmlns="http://www.w3.org/2000/svg" xmlns:xlink="http://www.w3.org/1999/xlink" x="0px" y="0px"
	 width="24px" height="24px" viewBox="0 0 24 24" enable-background="new 0 0 24 24" xml:space="preserve">
<g>
	<defs>
		<rect id="SVGID_1_" width="24" height="24"/>
	</defs>
	<clipPath id="SVGID_2_">
		<use xlink:href="#SVGID_1_"  overflow="visible"/>
	</clipPath>
	<path clip-path="url(#SVGID_2_)" fill="#0A2E40" d="M19,10.5c1.2-1.1,2-2.7,2-4.5c0-3.3-2.7-6-6-6c-3,0-5.4,2-5.9,5H9
		c-3.3,0-6,2.7-6,6c0,1.8,0.8,3.4,2,4.5C3.2,15.9,1.5,17,0,19v4c0,0.6,0.4,1,1,1h16c0.6,0,1-0.4,1-1v-4h5c0.6,0,1-0.4,1-1v-4
		C22.6,12,20.8,10.9,19,10.5 M15,2c2.2,0,4,1.8,4,4s-1.7,4-4,4c0-2.1-1.9-3.9-3.9-4.6C11.4,3.5,13,2,15,2 M5,11c0-2.2,1.8-4,4-4
		s4,1.8,4,4s-1.8,4-4,4S5,13.2,5,11 M16,22H2v-2c0,0,2-3,7-3s7,3,7,3V22z M22,17h-5.9c-1-0.8-2-1.3-3.1-1.5c1-0.9,1.7-2.1,1.9-3.5
		H15c5,0,7,3,7,3V17z"/>
</g>
</svg>
