<?xml version="1.0" encoding="utf-8"?>
<!-- Generator: Adobe Illustrator 16.0.0, SVG Export Plug-In . SVG Version: 6.00 Build 0)  -->
<!DOCTYPE svg PUBLIC "-//W3C//DTD SVG 1.1//EN" "http://www.w3.org/Graphics/SVG/1.1/DTD/svg11.dtd">
<svg version="1.1" id="Layer_1" xmlns="http://www.w3.org/2000/svg" xmlns:xlink="http://www.w3.org/1999/xlink" x="0px" y="0px"
	 width="30.026px" height="44.009px" viewBox="0 0 30.026 44.009" enable-background="new 0 0 30.026 44.009" xml:space="preserve">
<g>
	<defs>
		<rect id="SVGID_1_" width="30.026" height="44.009"/>
	</defs>
	<clipPath id="SVGID_2_">
		<use xlink:href="#SVGID_1_"  overflow="visible"/>
	</clipPath>
	<path clip-path="url(#SVGID_2_)" fill="#F8E82B" d="M28.018,18.492v4.02l-3.484,2.011l-2.01,3.482h-0.512
		c0,0.001,0.001,0.003,0.001,0.004v15c0,0.004-0.002,0.007-0.002,0.011c0.004,0.254-0.089,0.511-0.283,0.704
		c-0.193,0.194-0.449,0.287-0.704,0.283c-0.004,0-0.007,0.002-0.011,0.002c-0.319,0-0.593-0.16-0.774-0.395l-5.226-5.226
		l-5.225,5.226c-0.182,0.234-0.454,0.395-0.775,0.395c-0.004,0-0.007-0.002-0.01-0.002c-0.255,0.004-0.511-0.089-0.705-0.283
		c-0.193-0.193-0.287-0.45-0.283-0.704c0-0.004-0.002-0.007-0.002-0.011v-15c0-0.001,0.001-0.003,0.001-0.004H7.507l-2.012-3.482
		l-3.484-2.011v-4.02L0,15.01l2.011-3.483V7.504l3.484-2.013l2.012-3.479h4.025L15.012,0l3.484,2.012h4.025l2.01,3.479l3.484,2.013
		v4.022l2.011,3.484L28.018,18.492z M10.013,28.009v12.619l4.19-4.19c0.032-0.047,0.053-0.101,0.095-0.144
		c0.197-0.196,0.457-0.287,0.715-0.281c0.259-0.006,0.519,0.085,0.715,0.281c0.042,0.043,0.063,0.097,0.096,0.144l4.189,4.19V28.009
		c0-0.001,0.001-0.003,0.001-0.004h-1.517l-3.484,2.013l-3.479-2.013h-1.521C10.012,28.006,10.013,28.008,10.013,28.009
		 M26.013,12.061V8.658l-2.947-1.703l-1.699-2.943H17.96l-2.945-1.701l-2.943,1.701H8.666L6.965,6.954L4.016,8.657v3.404
		L2.315,15.01l1.701,2.947v3.4l2.949,1.702l1.701,2.945h3.405l2.943,1.701l2.945-1.701h3.405l1.699-2.945l2.948-1.702v-3.399
		l1.7-2.948L26.013,12.061z"/>
</g>
</svg>
