<?xml version="1.0" encoding="utf-8"?>
<!-- Generator: Adobe Illustrator 16.0.0, SVG Export Plug-In . SVG Version: 6.00 Build 0)  -->
<!DOCTYPE svg PUBLIC "-//W3C//DTD SVG 1.1//EN" "http://www.w3.org/Graphics/SVG/1.1/DTD/svg11.dtd">
<svg version="1.1" id="Layer_1" xmlns="http://www.w3.org/2000/svg" xmlns:xlink="http://www.w3.org/1999/xlink" x="0px" y="0px"
	 width="44px" height="46px" viewBox="0 0 44 46" enable-background="new 0 0 44 46" xml:space="preserve">
<g>
	<defs>
		<rect id="SVGID_1_" width="44" height="46"/>
	</defs>
	<clipPath id="SVGID_2_">
		<use xlink:href="#SVGID_1_"  overflow="visible"/>
	</clipPath>
	<path clip-path="url(#SVGID_2_)" fill="#E4145F" d="M39,46L39,46H5c-2.762,0-5-2.238-5-5V1c0-0.552,0.447-1,1-1h34
		c0.414,0,0.77,0.252,0.922,0.611C35.972,0.73,36,0.862,36,1v14h7c0.553,0,1,0.448,1,1v25C44,43.762,41.762,46,39,46 M34,41V2H2v39
		c0,1.657,1.344,3,3,3h30.022C34.39,43.162,34,42.131,34,41 M42,17h-6v24c0,1.657,1.343,3,3,3s3-1.343,3-3V17z M5,39
		c0-0.552,0.447-1,1-1h16c0.553,0,1,0.448,1,1c0,0.553-0.447,1-1,1H6C5.447,40,5,39.553,5,39 M27,28h3c0.553,0,1,0.448,1,1
		c0,0.553-0.447,1-1,1h-3c-0.553,0-1-0.447-1-1C26,28.448,26.447,28,27,28 M27,33h3c0.553,0,1,0.448,1,1c0,0.553-0.447,1-1,1h-3
		c-0.553,0-1-0.447-1-1C26,33.448,26.447,33,27,33 M27,38h3c0.553,0,1,0.448,1,1c0,0.553-0.447,1-1,1h-3c-0.553,0-1-0.447-1-1
		C26,38.448,26.447,38,27,38 M30,15H6c-0.553,0-1-0.448-1-1s0.447-1,1-1h24c0.553,0,1,0.448,1,1S30.553,15,30,15 M30,10H6
		c-0.553,0-1-0.448-1-1s0.447-1,1-1h24c0.553,0,1,0.448,1,1S30.553,10,30,10 M6,33h16c0.553,0,1,0.448,1,1c0,0.553-0.447,1-1,1H6
		c-0.553,0-1-0.447-1-1C5,33.448,5.447,33,6,33 M23,29c0,0.553-0.447,1-1,1H6c-0.553,0-1-0.447-1-1c0-0.552,0.447-1,1-1h16
		C22.553,28,23,28.448,23,29 M27,23h3c0.553,0,1,0.448,1,1c0,0.553-0.447,1-1,1h-3c-0.553,0-1-0.447-1-1C26,23.448,26.447,23,27,23
		 M23,24c0,0.553-0.447,1-1,1H6c-0.553,0-1-0.447-1-1c0-0.552,0.447-1,1-1h16C22.553,23,23,23.448,23,24 M27,18h3
		c0.553,0,1,0.448,1,1c0,0.553-0.447,1-1,1h-3c-0.553,0-1-0.447-1-1C26,18.448,26.447,18,27,18 M23,19c0,0.553-0.447,1-1,1H6
		c-0.553,0-1-0.447-1-1c0-0.552,0.447-1,1-1h16C22.553,18,23,18.448,23,19"/>
</g>
</svg>
