<?xml version="1.0" encoding="utf-8"?>
<!-- Generator: Adobe Illustrator 16.0.0, SVG Export Plug-In . SVG Version: 6.00 Build 0)  -->
<!DOCTYPE svg PUBLIC "-//W3C//DTD SVG 1.1//EN" "http://www.w3.org/Graphics/SVG/1.1/DTD/svg11.dtd">
<svg version="1.1" id="Layer_1" xmlns="http://www.w3.org/2000/svg" xmlns:xlink="http://www.w3.org/1999/xlink" x="0px" y="0px"
	 width="274px" height="312.395px" viewBox="0 0 274 312.395" enable-background="new 0 0 274 312.395" xml:space="preserve">
<g>
	<defs>
		<rect id="SVGID_1_" width="274" height="312.395"/>
	</defs>
	<clipPath id="SVGID_2_">
		<use xlink:href="#SVGID_1_"  overflow="visible"/>
	</clipPath>
	<path clip-path="url(#SVGID_2_)" fill="#3DB4A0" d="M226.639,228.05c-0.06-0.115-0.112-0.234-0.165-0.354
		c-0.262-0.565-0.487-1.149-0.7-1.738c-0.259-0.704-0.477-1.442-0.667-2.204c-0.111-0.447-0.223-0.897-0.305-1.354
		c-0.079-0.433-0.148-0.871-0.203-1.314c-0.13-1-0.22-2.01-0.22-3.044V111.703c0,0-0.492-8.673-5.848-15.486
		c-3.716-4.235-8.916-7.119-14.796-7.836c-0.931-0.094-1.856-0.195-2.87-0.195c-12.991,0-23.519,10.531-23.519,23.517v106.339
		v23.517H247.9C238.492,241.559,230.404,236.027,226.639,228.05"/>
	<path clip-path="url(#SVGID_2_)" fill="#FFFFFF" d="M247.9,239.059c-8.079,0-15.538-4.74-19.001-12.076
		c-0.011-0.022-0.021-0.044-0.032-0.065c-0.04-0.078-0.075-0.159-0.123-0.266c-0.196-0.427-0.394-0.918-0.624-1.556
		c-0.213-0.579-0.405-1.217-0.588-1.945c-0.098-0.395-0.197-0.791-0.271-1.199c-0.07-0.386-0.071-0.775-0.123-1.188
		c-0.136-1.039-0.138-1.904-0.138-2.722V111.703c0-0.047-0.061-0.095-0.064-0.142c-0.021-0.387-0.634-9.542-6.408-16.889
		c-0.028-0.035-0.072-0.07-0.103-0.103c-4.226-4.819-10.048-7.898-16.431-8.676l-0.18-0.018c-0.92-0.093-1.795-0.189-2.87-0.189
		c-14.348,0-25.944,11.671-25.944,26.017v129.856c0,1.381,0.966,2.836,2.347,2.836H247.9c1.381,0,2.5-1.287,2.5-2.668
		S249.281,239.059,247.9,239.059 M180,239.395V111.703c0-11.589,9.352-21.017,20.942-21.017c0.823,0,1.57,0.079,2.402,0.164
		l0.107,0.012c5.087,0.621,9.813,3.09,13.225,6.954c4.53,5.804,5.323,13.258,5.323,13.974v106.252c0,1.038,0.016,2.107,0.177,3.35
		c0.062,0.493,0.108,0.979,0.194,1.451c0.092,0.511,0.2,1.015,0.325,1.518c0.227,0.907,0.463,1.712,0.733,2.447
		c0.275,0.762,0.52,1.377,0.765,1.908c0.064,0.145,0.129,0.458,0.198,0.599c1.899,4.008,4.762,7.08,8.23,10.08H180z"/>
	<path clip-path="url(#SVGID_2_)" fill="#3DB4A0" d="M269.217,7.251l-2.741,4.745l-2.738-4.745l-2.741-4.75l-2.735,4.75
		l-2.747,4.745l-2.736-4.745l-2.743-4.75l-2.74,4.75l-2.741,4.745l-2.736-4.745l-2.744-4.75l-2.737,4.75l-2.744,4.745l-2.736-4.745
		l-2.745-4.75l-2.74,4.75l-0.989,1.716l-1.749,3.029l-2.741-4.745l-2.741-4.75l-2.741,4.75l-2.738,4.745l-2.741-4.745l-2.741-4.75
		l-2.735,4.75l-2.745,4.745l-2.74-4.745l-2.739-4.75l-2.742,4.75l-2.741,4.745l-2.739-4.745l-2.74-4.75l-2.738,4.75l-2.744,4.745
		l-2.734-4.745l-2.746-4.75l-2.735,4.75l-2.745,4.745l-2.742-4.745l-2.737-4.75l-2.742,4.75l-2.739,4.745l-2.742-4.745l-2.738-4.75
		l-2.736,4.75l-2.746,4.745l-2.737-4.745l-2.743-4.75l-2.741,4.75l-2.738,4.745l-2.741-4.745l-2.741-4.75l-2.739,4.75l-2.741,4.745
		l-2.739-4.745l-2.743-4.75l-2.737,4.75l-2.742,4.745l-2.738-4.745l-2.744-4.75l-2.741,4.75l-2.74,4.745l-2.74-4.745l-2.74-4.75
		v85.685h104.293c22.265,0,23.516,23.517,23.516,23.517v106.339c0,12.986,10.529,23.517,23.521,23.517
		c12.988,0,23.517-10.53,23.517-23.517V3.444L269.217,7.251z"/>
	<path clip-path="url(#SVGID_2_)" fill="#FFFFFF" d="M272.106,1.03c-1.093-0.293-2.268,0.383-2.832,1.362l-2.212,4.004h-0.006
		l-0.578,0.798l-3.316-5.646c-0.446-0.775-1.272-1.152-2.165-1.152h-0.002c-0.894,0-1.719,0.28-2.166,1.055l-3.311,5.647
		L252.2,1.299c-0.446-0.773-1.272-1.274-2.165-1.274c-0.894,0-1.719,0.464-2.165,1.238l-3.315,5.738l-3.316-5.748
		c-0.446-0.773-1.271-1.251-2.165-1.251l-0.001-0.001c-0.894,0-1.719,0.477-2.165,1.251l-3.313,5.745l-3.318-5.747
		C229.828,0.478,229.003,0,228.109,0c-0.893,0-1.719,0.478-2.165,1.251l-3.314,5.746l-3.317-5.746
		C218.867,0.478,218.042,0,217.148,0s-1.719,0.477-2.166,1.251l-3.314,5.746l-3.316-5.746C207.905,0.478,207.08,0,206.187,0h-0.001
		c-0.895,0-1.72,0.479-2.166,1.253l-3.312,5.748l-3.315-5.75C196.946,0.479,196.12,0,195.227,0s-1.719,0.477-2.165,1.251
		l-3.317,5.747l-3.314-5.747C185.982,0.478,185.157,0,184.263,0c-0.894,0-1.719,0.478-2.165,1.252l-3.312,5.744l-3.321-5.55
		c-0.446-0.773-1.271-1.051-2.164-1.051h-0.002c-0.894,0-1.719,0.281-2.165,1.055l-3.312,5.65l-3.486-5.799
		C163.89,0.527,163,0.025,162,0.025V0.013c-1,0-1.548,0.471-1.995,1.244L156.773,7l-3.271-5.747
		c-0.446-0.775-1.251-1.252-2.145-1.252c-0.895,0-1.709,0.477-2.155,1.251l-3.308,5.746l-3.316-5.748
		C142.131,0.478,141.307,0,140.414,0s-1.717,0.477-2.164,1.251l-3.315,5.745l-3.315-5.745C131.174,0.478,130.349,0,129.455,0
		s-1.72,0.478-2.166,1.251l-3.313,5.746l-3.318-5.747C120.212,0.478,119.387,0,118.493,0h-0.001c-0.893,0-1.719,0.478-2.165,1.252
		l-3.311,5.745l-3.319-5.747C109.251,0.478,108.425,0,107.532,0c-0.893,0-1.719,0.477-2.165,1.251l-3.316,5.746l-3.315-5.746
		c-0.566-0.98-1.754-1.458-2.847-1.166C94.796,0.378,94,1.369,94,2.5v85.686c0,1.38,1.189,2.209,2.57,2.209h104.295
		c19.264,0,21.135,19.927,21.135,21.382v106.265c0,14.346,11.654,26.017,26.002,26.017c14.346,0,25.998-11.671,25.998-26.017V3.444
		C274,2.313,273.199,1.323,272.106,1.03 M269,218.042c0,11.589-9.409,21.017-20.998,21.017c-11.591,0-21.002-9.428-21.002-21.017
		v-106.34c0-0.044-0.061-0.234-0.064-0.278c-0.014-0.259-1.718-26.029-26.07-26.029H99V11.834l0.851,1.412
		c0.446,0.774,1.289,1.25,2.182,1.25c0.894,0,1.728-0.476,2.174-1.25l3.322-5.745l3.317,5.694c0.447,0.774,1.273,1.2,2.166,1.2
		h0.001c0.893,0,1.718-0.426,2.164-1.199l3.318-5.716l3.315,5.753c0.446,0.774,1.271,1.257,2.165,1.257
		c0.892,0,1.717-0.474,2.165-1.246l3.316-5.742l3.315,5.743c0.448,0.774,1.273,1.251,2.166,1.251s1.718-0.477,2.165-1.25
		l3.315-5.746l3.313,5.694c0.446,0.774,1.271,1.201,2.164,1.201h0.002c0.893,0,1.717-0.425,2.164-1.198l3.319-5.716l3.315,5.753
		c0.447,0.774,1.272,1.256,2.166,1.256c0.893,0,1.718-0.474,2.164-1.247l3.313-5.741l3.318,5.744c0.446,0.773,1.271,1.25,2.164,1.25
		s1.718-0.476,2.164-1.248l3.319-5.745l3.312,5.691c0.445,0.774,1.271,1.201,2.164,1.201h0.002c0.893,0,1.718-0.425,2.164-1.198
		l3.318-5.717l3.314,5.753c0.446,0.774,1.271,1.257,2.165,1.257c0.893,0,1.718-0.474,2.165-1.246l3.316-5.742l3.315,5.743
		c0.446,0.774,1.271,1.251,2.164,1.251h0.001c0.893,0,1.717-0.476,2.164-1.248l3.319-5.741l3.314,5.74
		c0.447,0.773,1.272,1.249,2.165,1.249s1.719-0.476,2.165-1.25l3.314-5.743l3.317,5.744c0.447,0.773,1.272,1.249,2.165,1.249
		c0.894,0,1.719-0.476,2.165-1.25l3.316-5.745l3.313,5.693c0.446,0.774,1.271,1.201,2.164,1.201h0.002
		c0.893,0,1.718-0.425,2.164-1.198l3.32-5.719l3.536,5.754c0.445,0.774,1.389,1.258,2.389,1.258v0.003c0,0,1.494-0.475,1.941-1.248
		l3.207-5.745l3.256,5.694c0.445,0.773,1.214,1.201,2.107,1.201h0.002c0.892,0,1.717-0.425,2.164-1.197l3.32-5.717l3.075,5.752
		c0.446,0.774,1.927,1.257,1.927,1.257v0.003c1,0,1.997-0.475,2.444-1.248L269,12.769V218.042z"/>
	<path clip-path="url(#SVGID_2_)" fill="#3DB4A0" d="M177.241,111.703c0-12.986,10.526-23.517,23.518-23.517H25.915
		c-12.99,0-23.519,10.531-23.519,23.517v198.509h174.845v-68.653v-23.517V111.703z"/>
	<path clip-path="url(#SVGID_2_)" fill="#FFFFFF" d="M200.759,85.395H25.915C11.568,85.395,0,97.356,0,111.703v198.51
		c0,1.381,1.016,2.183,2.396,2.183h174.845c1.381,0,2.759-0.802,2.759-2.183v-198.51c0-11.589,9.299-21.017,20.888-21.017
		c1.381,0,2.436-1.264,2.436-2.645S202.14,85.395,200.759,85.395 M175,111.703v195.692H5V111.703
		c0-11.589,9.325-21.308,20.915-21.308h159.524C178.958,95.395,175,103.079,175,111.703"/>
	<polygon clip-path="url(#SVGID_2_)" fill="#FFFFFF" points="115.597,32.612 126.086,32.612 140.987,56.963 141.085,56.963 
		141.085,32.612 148.806,32.612 148.806,67.653 138.71,67.653 123.414,42.708 123.317,42.708 123.317,67.653 115.597,67.653 	"/>
	<path clip-path="url(#SVGID_2_)" fill="#FFFFFF" d="M153.337,50.131c0-2.802,0.473-5.344,1.412-7.62
		c0.939-2.278,2.252-4.215,3.934-5.816c1.684-1.601,3.68-2.829,5.988-3.687c2.312-0.857,4.835-1.288,7.574-1.288
		c2.737,0,5.261,0.431,7.572,1.288c2.309,0.858,4.306,2.086,5.988,3.687c1.682,1.601,2.994,3.538,3.935,5.816
		c0.938,2.276,1.41,4.818,1.41,7.62c0,2.806-0.473,5.346-1.41,7.624c-0.94,2.275-2.253,4.215-3.935,5.815
		c-1.683,1.6-3.68,2.83-5.988,3.687c-2.312,0.857-4.835,1.286-7.572,1.286c-2.739,0-5.263-0.429-7.574-1.286
		c-2.309-0.857-4.305-2.087-5.988-3.687c-1.682-1.6-2.994-3.54-3.934-5.815C153.81,55.477,153.337,52.937,153.337,50.131
		 M161.355,50.131c0,1.65,0.256,3.161,0.768,4.53c0.511,1.369,1.245,2.557,2.203,3.564c0.956,1.007,2.102,1.79,3.44,2.349
		c1.335,0.562,2.827,0.842,4.479,0.842c1.648,0,3.142-0.28,4.48-0.842c1.333-0.559,2.481-1.342,3.438-2.349
		c0.957-1.007,1.691-2.195,2.204-3.564c0.511-1.369,0.766-2.88,0.766-4.53c0-1.616-0.255-3.118-0.766-4.502
		c-0.513-1.387-1.247-2.582-2.204-3.589c-0.956-1.006-2.104-1.79-3.438-2.352c-1.339-0.56-2.832-0.841-4.48-0.841
		c-1.651,0-3.144,0.281-4.479,0.841c-1.339,0.563-2.484,1.346-3.44,2.352c-0.958,1.007-1.692,2.202-2.203,3.589
		C161.611,47.013,161.355,48.515,161.355,50.131"/>
	<polygon clip-path="url(#SVGID_2_)" fill="#FFFFFF" points="202.962,39.44 192.966,39.44 192.966,32.612 220.68,32.612 
		220.68,39.44 210.683,39.44 210.683,67.653 202.962,67.653 	"/>
	<path clip-path="url(#SVGID_2_)" fill="#FFFFFF" d="M230.76,32.612h6.387l15.243,35.041h-8.711l-3.019-7.424h-13.612l-2.92,7.424
		h-8.513L230.76,32.612z M233.732,42.807l-4.259,10.889h8.562L233.732,42.807z"/>
	<path clip-path="url(#SVGID_2_)" fill="#FFFFFF" d="M28.044,112.833h6.936c1.684,0,3.278,0.188,4.791,0.563
		c1.511,0.375,2.833,0.983,3.959,1.824c1.128,0.841,2.022,1.932,2.685,3.277c0.661,1.345,0.994,2.975,0.994,4.893
		c0,1.701-0.322,3.197-0.965,4.492c-0.643,1.296-1.508,2.383-2.593,3.263c-1.089,0.88-2.344,1.547-3.768,2.001
		c-1.423,0.455-2.917,0.682-4.478,0.682h-7.561V112.833z M32.669,129.559h2.402c1.067,0,2.061-0.109,2.981-0.326
		c0.919-0.217,1.715-0.578,2.387-1.082c0.672-0.504,1.202-1.167,1.587-1.987c0.385-0.82,0.578-1.825,0.578-3.011
		c0-1.027-0.193-1.923-0.578-2.684c-0.385-0.76-0.906-1.387-1.558-1.882c-0.653-0.495-1.418-0.865-2.297-1.113
		c-0.881-0.246-1.804-0.371-2.773-0.371h-2.729V129.559z"/>
	<path clip-path="url(#SVGID_2_)" fill="#FFFFFF" d="M57.461,112.834h3.825l9.134,20.995h-5.219l-1.809-4.448h-8.156l-1.749,4.448
		h-5.1L57.461,112.834z M59.239,118.942l-2.549,6.525h5.131L59.239,118.942z"/>
	<polygon clip-path="url(#SVGID_2_)" fill="#FFFFFF" points="28.043,151.268 54.2,151.268 54.2,159.097 36.527,159.097 
		36.527,166.277 53.222,166.277 53.222,174.109 36.527,174.109 36.527,181.938 55.179,181.938 55.179,189.769 28.043,189.769 	"/>
	<path clip-path="url(#SVGID_2_)" fill="#FFFFFF" d="M81.628,160.675c-0.689-0.87-1.623-1.513-2.803-1.931
		c-1.176-0.416-2.289-0.625-3.342-0.625c-0.616,0-1.251,0.072-1.902,0.217c-0.655,0.146-1.273,0.373-1.85,0.68
		c-0.58,0.31-1.054,0.717-1.416,1.222c-0.36,0.51-0.543,1.124-0.543,1.852c0,1.161,0.437,2.049,1.306,2.665
		c0.87,0.616,1.968,1.142,3.29,1.575c1.324,0.436,2.746,0.871,4.269,1.307c1.524,0.434,2.946,1.051,4.269,1.848
		c1.323,0.797,2.419,1.869,3.289,3.209c0.872,1.343,1.306,3.138,1.306,5.385c0,2.14-0.399,4.006-1.195,5.601
		c-0.799,1.597-1.877,2.92-3.235,3.972c-1.361,1.05-2.939,1.83-4.732,2.335c-1.796,0.509-3.69,0.764-5.684,0.764
		c-2.501,0-4.822-0.379-6.96-1.144c-2.139-0.76-4.135-1.991-5.983-3.696l6.038-6.636c0.869,1.163,1.963,2.059,3.288,2.693
		c1.322,0.635,2.693,0.951,4.106,0.951c0.688,0,1.388-0.083,2.092-0.245c0.709-0.163,1.34-0.408,1.907-0.734
		c0.561-0.327,1.012-0.742,1.358-1.249c0.344-0.509,0.52-1.107,0.52-1.797c0-1.159-0.449-2.075-1.335-2.745
		c-0.89-0.671-2.003-1.243-3.346-1.714c-1.34-0.47-2.791-0.941-4.35-1.413s-3.008-1.105-4.349-1.903
		c-1.341-0.799-2.456-1.849-3.344-3.153c-0.891-1.308-1.333-3.027-1.333-5.168c0-2.065,0.406-3.879,1.224-5.438
		c0.814-1.558,1.902-2.864,3.26-3.915c1.362-1.052,2.929-1.84,4.706-2.367c1.777-0.525,3.607-0.788,5.492-0.788
		c2.176,0,4.278,0.309,6.309,0.925c2.028,0.617,3.862,1.648,5.491,3.1L81.628,160.675z"/>
	<path clip-path="url(#SVGID_2_)" fill="#FFFFFF" d="M92.034,151.268h14.3c1.995,0,3.88,0.182,5.657,0.544
		c1.777,0.362,3.326,0.987,4.652,1.876c1.32,0.889,2.371,2.084,3.15,3.59c0.782,1.504,1.17,3.397,1.17,5.682
		c0,2.248-0.361,4.132-1.086,5.654c-0.724,1.523-1.723,2.738-2.991,3.645c-1.271,0.907-2.775,1.551-4.515,1.931
		c-1.738,0.38-3.626,0.571-5.654,0.571h-6.201v15.01h-8.482V151.268z M100.517,167.582h5.658c0.762,0,1.494-0.071,2.201-0.217
		c0.707-0.144,1.34-0.391,1.904-0.736c0.561-0.342,1.013-0.815,1.359-1.412c0.346-0.598,0.517-1.351,0.517-2.257
		c0-0.979-0.23-1.768-0.679-2.366c-0.454-0.598-1.036-1.061-1.74-1.388c-0.708-0.323-1.497-0.533-2.366-0.623
		c-0.871-0.092-1.704-0.137-2.505-0.137h-4.349V167.582z"/>
	<polygon clip-path="url(#SVGID_2_)" fill="#FFFFFF" points="125.498,151.268 151.656,151.268 151.656,159.097 133.978,159.097 
		133.978,166.277 150.677,166.277 150.677,174.109 133.978,174.109 133.978,181.938 152.635,181.938 152.635,189.769 
		125.498,189.769 	"/>
	<path clip-path="url(#SVGID_2_)" fill="#FFFFFF" d="M28.044,195.28h14.9c1.956,0,3.816,0.19,5.574,0.571
		c1.757,0.381,3.298,1.017,4.622,1.903c1.324,0.89,2.373,2.086,3.155,3.591c0.778,1.503,1.168,3.381,1.168,5.627
		c0,2.721-0.706,5.031-2.12,6.933c-1.414,1.904-3.482,3.11-6.2,3.619l9.79,16.26h-10.17l-8.051-15.392h-4.185v15.392h-8.483V195.28z
		 M36.527,211.214h5.003c0.761,0,1.567-0.026,2.421-0.081c0.851-0.055,1.621-0.219,2.311-0.489c0.687-0.272,1.26-0.698,1.713-1.279
		c0.451-0.577,0.679-1.394,0.679-2.447c0-0.977-0.199-1.757-0.599-2.337c-0.4-0.581-0.906-1.024-1.522-1.335
		c-0.618-0.305-1.323-0.515-2.121-0.624c-0.799-0.108-1.577-0.162-2.339-0.162h-5.546V211.214z"/>
	<path clip-path="url(#SVGID_2_)" fill="#FFFFFF" d="M80.108,195.28h7.015l16.748,38.504h-9.57l-3.317-8.158H76.028l-3.208,8.158
		h-9.352L80.108,195.28z M83.37,206.484l-4.676,11.965h9.409L83.37,206.484z"/>
	<polygon clip-path="url(#SVGID_2_)" fill="#FFFFFF" points="108.404,195.28 119.931,195.28 136.302,222.038 136.411,222.038 
		136.411,195.28 144.895,195.28 144.895,233.784 133.801,233.784 116.996,206.375 116.887,206.375 116.887,233.784 108.404,233.784 
			"/>
	<path clip-path="url(#SVGID_2_)" fill="#FFFFFF" d="M55.289,249.301c-0.835-1.016-1.859-1.794-3.073-2.339
		c-1.215-0.544-2.619-0.814-4.215-0.814c-1.598,0-3.074,0.308-4.433,0.924c-1.359,0.617-2.537,1.479-3.536,2.583
		c-0.994,1.105-1.773,2.419-2.337,3.943c-0.563,1.523-0.842,3.172-0.842,4.948c0,1.813,0.279,3.472,0.842,4.977
		c0.564,1.504,1.332,2.807,2.311,3.914c0.978,1.106,2.13,1.968,3.453,2.585c1.324,0.614,2.748,0.924,4.27,0.924
		c1.741,0,3.282-0.364,4.622-1.089c1.34-0.725,2.448-1.74,3.319-3.044l7.067,5.274c-1.632,2.285-3.696,3.969-6.197,5.058
		c-2.503,1.087-5.077,1.632-7.723,1.632h-0.518c-0.163,0-0.333-0.02-0.516-0.057l-1.576,2.34c0.796,0,1.602,0.045,2.417,0.137
		c0.818,0.089,1.551,0.289,2.203,0.599c0.653,0.307,1.19,0.76,1.607,1.359c0.415,0.599,0.625,1.402,0.625,2.418
		c0,0.981-0.263,1.813-0.79,2.503c-0.526,0.688-1.178,1.232-1.958,1.632c-0.779,0.398-1.602,0.688-2.472,0.869
		c-0.87,0.182-1.651,0.272-2.339,0.272c-1.088,0-2.257-0.154-3.51-0.461c-1.249-0.311-2.345-0.699-3.289-1.171l1.359-2.557
		c0.437,0.182,1.008,0.381,1.715,0.599c0.705,0.219,1.531,0.326,2.475,0.326c0.434,0,0.86-0.027,1.277-0.082
		c0.414-0.055,0.797-0.145,1.139-0.271c0.346-0.129,0.627-0.297,0.847-0.516c0.216-0.217,0.326-0.507,0.326-0.871
		c0-0.65-0.319-1.122-0.953-1.413c-0.635-0.291-1.224-0.436-1.767-0.436c-0.617,0-1.269,0.145-1.96,0.436l-1.74-1.576l2.939-4.459
		c-2.43-0.437-4.642-1.205-6.636-2.313c-1.992-1.104-3.708-2.511-5.139-4.217c-1.432-1.702-2.548-3.677-3.345-5.925
		s-1.194-4.713-1.194-7.396c0-3.081,0.515-5.873,1.549-8.374c1.033-2.503,2.473-4.63,4.323-6.393
		c1.849-1.757,4.041-3.106,6.581-4.049c2.535-0.941,5.311-1.414,8.32-1.414c1.087,0,2.22,0.1,3.399,0.299
		c1.178,0.199,2.338,0.517,3.479,0.953c1.142,0.432,2.239,1.015,3.29,1.739c1.051,0.724,1.996,1.612,2.828,2.662L55.289,249.301z"/>
	<path clip-path="url(#SVGID_2_)" fill="#FFFFFF" d="M80.106,239.295h7.017l16.748,38.502h-9.57l-3.317-8.157H76.027l-3.206,8.157
		h-9.353L80.106,239.295z M83.37,250.499l-4.676,11.964h9.408L83.37,250.499z"/>
</g>
</svg>
