<?xml version="1.0" encoding="utf-8"?>
<!-- Generator: Adobe Illustrator 16.0.0, SVG Export Plug-In . SVG Version: 6.00 Build 0)  -->
<!DOCTYPE svg PUBLIC "-//W3C//DTD SVG 1.1//EN" "http://www.w3.org/Graphics/SVG/1.1/DTD/svg11.dtd">
<svg version="1.1" id="Layer_1" xmlns="http://www.w3.org/2000/svg" xmlns:xlink="http://www.w3.org/1999/xlink" x="0px" y="0px"
	 width="522.218px" height="673.873px" viewBox="32.953 53.011 522.218 673.873"
	 enable-background="new 32.953 53.011 522.218 673.873" xml:space="preserve">
<g>
	<path fill="#FFFFFF" d="M46.405,642.145l11.433,28.247H55.82l-3.026-7.734H38.334l-3.026,7.734h-2.354l11.434-28.247H46.405z
		 M52.121,660.64l-3.699-9.415l-2.69-7.398l-2.689,7.398l-3.699,9.415H52.121z"/>
	<path fill="#FFFFFF" d="M71.96,655.932c0-3.026-3.026-3.362-5.38-3.362c-3.026,0-5.044,1.345-5.044,3.699
		c0,3.026,2.69,3.362,5.717,3.362c3.698,0.336,6.725,1.009,6.725,5.38c0,4.035-3.362,5.717-7.062,5.717
		c-3.698,0-7.397-1.682-7.397-5.717H61.2c0,2.69,3.026,4.035,5.716,4.035c2.69,0,5.381-1.009,5.381-4.035
		c0-3.362-3.363-3.362-6.053-3.698c-3.026-0.337-6.39-0.673-6.39-5.044c0-3.699,3.363-5.381,6.726-5.381s7.062,1.009,7.062,5.044
		H71.96z"/>
	<path fill="#FFFFFF" d="M89.447,655.932c0-3.026-3.026-3.362-5.381-3.362c-3.026,0-5.044,1.345-5.044,3.699
		c0,3.026,2.69,3.362,5.717,3.362c3.699,0.336,6.726,1.009,6.726,5.38c0,4.035-3.363,5.717-7.062,5.717
		c-3.699,0-7.398-1.682-7.398-5.717h1.682c0,2.69,3.026,4.035,5.717,4.035c2.689,0,5.38-1.009,5.38-4.035
		c0-3.362-3.362-3.362-6.053-3.698c-3.026-0.337-6.389-0.673-6.389-5.044c0-3.699,3.362-5.381,6.725-5.381
		c3.363,0,7.062,1.009,7.062,5.044H89.447z"/>
	<path fill="#FFFFFF" d="M110.631,660.64c0,5.044-2.354,9.752-8.07,9.752c-5.717,0-8.07-4.708-8.07-9.752s2.354-9.752,8.07-9.752
		C108.277,650.888,110.631,655.596,110.631,660.64z M102.561,669.046c4.707,0,6.389-4.371,6.389-8.406s-1.682-8.407-6.389-8.407
		c-4.708,0-6.39,4.372-6.39,8.407S98.189,669.046,102.561,669.046z"/>
	<path fill="#FFFFFF" d="M113.993,660.64c0-5.044,2.354-9.752,8.07-9.752c3.026,0,5.717,1.682,6.726,4.708l-1.346,0.672
		c-1.009-2.689-3.026-4.035-5.38-4.035c-4.371,0-6.389,4.372-6.389,8.407s1.681,8.07,6.389,8.07c2.354,0,4.371-0.673,5.38-4.372
		l1.682,0.337c-1.009,3.362-3.362,5.38-7.062,5.38C116.347,670.392,113.993,665.684,113.993,660.64z"/>
	<path fill="#FFFFFF" d="M132.824,645.844v-3.026h1.681v3.026H132.824z M132.824,670.055v-18.83h1.681v18.83H132.824z"/>
	<path fill="#FFFFFF" d="M146.275,652.232c-2.018,0-4.035,0.673-5.38,2.019l-0.673-1.346c1.682-1.681,4.035-2.354,6.389-2.354
		c4.035,0,7.398,1.682,7.398,8.07v8.743v2.689h-1.346l-0.336-4.035c-1.009,3.026-4.371,4.372-7.062,4.372
		c-4.371,0-6.389-3.026-6.389-5.717c0-3.026,1.681-5.717,6.053-5.717h7.733C152.327,654.587,150.646,652.232,146.275,652.232z
		 M152.327,660.304h-7.734c-3.026,0-4.371,2.354-4.371,4.371s1.682,4.035,5.044,4.035
		C149.301,669.046,152.327,666.356,152.327,660.304z"/>
	<path fill="#FFFFFF" d="M163.088,674.763c1.009,2.018,4.707,2.354,5.044,0c0-1.682-2.018-2.018-3.363-1.682l-0.672-0.672
		l0.672-2.018c-4.707-0.673-7.062-5.044-7.062-9.752c0-5.044,2.354-9.752,8.07-9.752c3.026,0,5.717,1.682,6.726,4.708l-1.345,0.672
		c-1.009-2.689-3.026-4.035-5.381-4.035c-4.371,0-6.389,4.372-6.389,8.407s1.682,8.07,6.389,8.07c2.354,0,4.372-0.673,5.381-4.372
		l1.681,0.337c-1.009,3.362-3.362,5.044-6.725,5.38l-0.337,1.346c2.354,0,4.035,1.345,4.035,3.026
		c-0.336,3.698-5.716,4.034-7.397,0.672L163.088,674.763z"/>
	<path fill="#FFFFFF" d="M183.264,652.232c-2.018,0-4.035,0.673-5.381,2.019l-0.672-1.346c1.681-1.681,4.035-2.354,6.389-2.354
		c4.035,0,7.397,1.682,7.397,8.07v8.743v2.689h-1.345l-0.336-4.035c-1.009,3.026-4.372,4.372-7.062,4.372
		c-4.372,0-6.39-3.026-6.39-5.717c0-3.026,1.682-5.717,6.053-5.717h7.734C189.317,654.587,187.635,652.232,183.264,652.232z
		 M189.317,660.304h-7.734c-3.026,0-4.371,2.354-4.371,4.371s1.681,4.035,5.044,4.035
		C186.29,669.046,189.317,666.356,189.317,660.304z M185.617,645.172c0.673,0,1.345-0.673,1.682-1.682l1.345,0.336
		c-0.336,1.346-1.682,2.354-3.026,2.354c-1.682,0-2.354-1.682-3.699-1.682c-0.672,0-1.345,0.673-1.681,1.345l-1.346-0.336
		c0.337-1.682,1.346-2.354,2.69-2.354C183.936,643.154,184.609,645.172,185.617,645.172z"/>
	<path fill="#FFFFFF" d="M211.51,660.64c0,5.044-2.354,9.752-8.07,9.752s-8.07-4.708-8.07-9.752s2.354-9.752,8.07-9.752
		C208.82,650.888,211.51,655.596,211.51,660.64z M203.104,669.046c4.707,0,6.389-4.371,6.389-8.406s-1.682-8.407-6.389-8.407
		c-4.708,0-6.39,4.372-6.39,8.407S198.732,669.046,203.104,669.046z"/>
	<path fill="#FFFFFF" d="M225.633,670.055h-1.682v-27.91h10.761c5.38,0,8.07,4.035,8.07,9.08c0,4.371-3.026,8.406-8.07,8.406h-8.743
		v10.424H225.633z M234.712,643.826h-9.079v13.787h8.743c4.035,0,6.053-3.026,6.053-6.726
		C240.765,646.853,239.083,643.826,234.712,643.826z"/>
	<path fill="#FFFFFF" d="M252.534,652.232c-2.018,0-4.035,0.673-5.381,2.019l-0.672-1.346c1.681-1.681,4.035-2.354,6.389-2.354
		c4.035,0,7.397,1.682,7.397,8.07v8.743v2.689h-1.345l-0.336-4.035c-1.009,3.026-4.372,4.372-7.062,4.372
		c-4.372,0-6.39-3.026-6.39-5.717c0-3.026,1.682-5.717,6.053-5.717h7.734C258.587,654.587,256.906,652.232,252.534,652.232z
		 M258.587,660.304h-7.734c-3.026,0-4.371,2.354-4.371,4.371s1.681,4.035,5.044,4.035
		C255.561,669.046,258.587,666.356,258.587,660.304z"/>
	<path fill="#FFFFFF" d="M266.657,651.225v3.698c1.009-2.69,3.362-4.035,5.716-4.035c1.346,0,3.026,0.673,4.035,1.345l-0.672,1.346
		c-1.009-0.673-2.354-1.346-3.363-1.346c-3.026,0-5.38,3.027-5.38,7.063v10.424h-1.682v-18.831h1.346V651.225z"/>
	<path fill="#FFFFFF" d="M284.816,652.232c-2.018,0-4.035,0.673-5.381,2.019l-0.672-1.346c1.681-1.681,4.035-2.354,6.389-2.354
		c4.035,0,7.397,1.682,7.397,8.07v8.743v2.689h-1.345l-0.336-4.035c-1.009,3.026-4.372,4.372-7.062,4.372
		c-4.372,0-6.39-3.026-6.39-5.717c0-3.026,1.682-5.717,6.053-5.717h7.734C290.868,654.587,288.851,652.232,284.816,652.232z
		 M290.868,660.304h-7.734c-3.026,0-4.371,2.354-4.371,4.371s1.681,4.035,5.044,4.035
		C287.505,669.046,290.868,666.356,290.868,660.304z"/>
	<path fill="#FFFFFF" d="M297.257,651.225h1.345l0.336,3.362c1.01-2.69,3.363-3.699,6.053-3.699c5.381,0,7.398,4.035,7.398,9.079
		v10.425h-1.682v-10.425c0-3.699-1.345-7.397-5.717-7.397c-2.689,0-5.716,1.681-5.716,6.389v11.433h-1.682v-19.166H297.257z"/>
	<path fill="#FFFFFF" d="M324.158,652.232c-2.018,0-4.035,0.673-5.381,2.019l-0.672-1.346c1.681-1.681,4.035-2.354,6.389-2.354
		c4.035,0,7.397,1.682,7.397,8.07v8.743v2.689h-1.345l-0.336-4.035c-1.009,3.026-4.372,4.372-7.062,4.372
		c-4.372,0-6.39-3.026-6.39-5.717c0-3.026,1.682-5.717,6.053-5.717h7.734C330.211,654.587,328.194,652.232,324.158,652.232z
		 M330.211,660.304h-7.734c-3.026,0-4.371,2.354-4.371,4.371s1.681,4.035,5.043,4.035
		C326.848,669.046,330.211,666.356,330.211,660.304z"/>
	<path fill="#FFFFFF" d="M350.723,666.02c-1.345,3.026-4.035,4.372-6.726,4.372c-5.716,0-8.07-4.708-8.07-9.752
		s2.354-9.752,8.07-9.752c5.717,0,8.07,5.381,7.734,10.761h-14.123c0.336,4.035,2.018,7.397,6.389,7.397
		c2.354,0,4.372-1.009,5.381-3.362L350.723,666.02z M349.714,659.967c0-3.699-2.018-7.734-6.053-7.734s-6.053,4.035-6.053,7.734
		H349.714z"/>
	<path fill="#FFFFFF" d="M355.767,651.225h1.345l0.337,3.362c1.009-2.69,3.362-3.699,6.053-3.699c5.38,0,7.397,4.035,7.397,9.079
		v10.425h-1.682v-10.425c0-3.699-1.345-7.397-5.716-7.397c-2.69,0-5.717,1.681-5.717,6.389v11.433h-1.682v-19.166H355.767z"/>
	<path fill="#FFFFFF" d="M387.375,655.932c0-3.026-3.026-3.362-5.38-3.362c-3.026,0-5.044,1.345-5.044,3.699
		c0,3.026,2.69,3.362,5.717,3.362c3.698,0.336,6.725,1.009,6.725,5.38c0,4.035-3.362,5.717-7.062,5.717
		c-3.698,0-7.397-1.682-7.397-5.717h1.682c0,2.69,3.026,4.035,5.716,4.035c2.69,0,5.381-1.009,5.381-4.035
		c0-3.362-3.363-3.362-6.053-3.698c-3.026-0.337-6.39-0.673-6.39-5.044c0-3.699,3.363-5.381,6.726-5.381s7.062,1.009,7.062,5.044
		H387.375z"/>
	<path fill="#FFFFFF" d="M407.215,666.02c-1.345,3.026-4.035,4.372-6.726,4.372c-5.716,0-8.07-4.708-8.07-9.752
		s2.354-9.752,8.07-9.752c5.717,0,8.07,5.381,7.734,10.761h-14.123c0.336,4.035,2.018,7.397,6.389,7.397
		c2.354,0,4.372-1.009,5.381-3.362L407.215,666.02z M406.542,659.967c0-3.699-2.018-7.734-6.053-7.734s-6.053,4.035-6.053,7.734
		H406.542z"/>
	<path fill="#FFFFFF" d="M434.452,670.055v-4.035c-1.009,2.69-3.362,4.372-6.389,4.372c-5.717,0-8.07-5.044-8.07-9.752
		c0-5.044,2.354-9.752,8.07-9.752c3.026,0,5.38,1.682,6.389,4.372v-13.114h1.682v27.909H434.452L434.452,670.055z M427.727,652.232
		c-4.707,0-6.389,4.372-6.389,8.407s1.682,8.406,6.389,8.406c4.708,0,6.39-5.044,6.39-8.743
		C434.116,655.932,431.762,652.232,427.727,652.232z"/>
	<path fill="#FFFFFF" d="M454.628,666.02c-1.345,3.026-4.035,4.372-6.726,4.372c-5.716,0-8.07-4.708-8.07-9.752
		s2.354-9.752,8.07-9.752c5.717,0,8.07,5.381,7.734,10.761h-14.123c0.336,4.035,2.018,7.397,6.389,7.397
		c2.354,0,4.372-1.009,5.381-3.362L454.628,666.02z M453.955,659.967c0-3.699-2.018-7.734-6.053-7.734s-6.053,4.035-6.053,7.734
		H453.955z"/>
	<path fill="#FFFFFF" d="M479.176,642.145l11.433,28.247h-2.018l-3.026-7.734h-14.46l-3.026,7.734h-2.018l11.434-28.247H479.176z
		 M484.892,660.64l-3.698-9.415l-2.69-7.398l-2.69,7.398l-3.699,9.415H484.892z"/>
	<path fill="#FFFFFF" d="M494.308,651.225v4.371c1.009-2.69,3.362-4.708,6.389-4.708c5.717,0,8.07,4.708,8.07,9.752
		s-2.354,9.752-8.07,9.752c-3.026,0-5.044-1.682-6.389-4.035v12.777h-1.682v-27.909H494.308z M501.032,669.046
		c4.708,0,6.39-4.371,6.39-8.406s-1.682-8.407-6.39-8.407c-4.707,0-6.389,4.708-6.389,8.743
		C494.644,665.348,496.997,669.046,501.032,669.046z"/>
	<path fill="#FFFFFF" d="M528.943,660.64c0,5.044-2.354,9.752-8.07,9.752s-8.07-4.708-8.07-9.752s2.354-9.752,8.07-9.752
		C526.252,650.888,528.943,655.596,528.943,660.64z M520.872,669.046c4.708,0,6.389-4.371,6.389-8.406s-1.681-8.407-6.389-8.407
		s-6.389,4.372-6.389,8.407C514.147,664.675,516.164,669.046,520.872,669.046z"/>
	<path fill="#FFFFFF" d="M532.978,645.844v-3.026h1.682v3.026H532.978z M532.978,670.055v-18.83h1.682v18.83H532.978z"/>
	<path fill="#FFFFFF" d="M555.171,660.64c0,5.044-2.354,9.752-8.07,9.752s-8.07-4.708-8.07-9.752s2.354-9.752,8.07-9.752
		S555.171,655.596,555.171,660.64z M547.101,669.046c4.708,0,6.389-4.371,6.389-8.406s-1.681-8.407-6.389-8.407
		s-6.389,4.372-6.389,8.407S542.393,669.046,547.101,669.046z"/>
	<path fill="#FFFFFF" d="M141.231,689.559c4.708,0,8.406,2.354,10.088,7.062l-1.345,0.672c-1.682-3.698-4.372-6.053-8.407-6.053
		c-7.062,0-9.751,6.726-9.751,12.778s2.689,12.778,9.751,12.778c4.372,0,7.398-2.018,8.743-6.053l1.682,0.672
		c-1.682,4.708-5.044,7.398-10.088,7.398c-8.07,0-11.434-7.062-11.434-14.46C129.461,696.956,133.16,689.559,141.231,689.559z"/>
	<path fill="#FFFFFF" d="M156.363,698.974v3.699c1.009-2.69,3.362-4.035,5.717-4.035c1.345,0,3.026,0.672,4.035,1.345l-0.673,1.345
		c-1.009-0.672-2.354-1.345-3.362-1.345c-3.026,0-5.381,3.026-5.381,7.062v10.424h-1.681v-18.83h1.345V698.974z"/>
	<path fill="#FFFFFF" d="M168.804,693.93v-3.026h1.682v3.026H168.804z M168.804,718.141V699.31h1.682v18.831H168.804z"/>
	<path fill="#FFFFFF" d="M182.591,700.318c-2.018,0-4.035,0.673-5.38,2.018l-0.673-1.345c1.682-1.682,4.035-2.354,6.389-2.354
		c4.035,0,7.398,1.681,7.398,8.07v8.742v2.69h-1.346l-0.336-4.035c-1.009,3.026-4.371,4.371-7.062,4.371
		c-4.371,0-6.389-3.026-6.389-5.716c0-3.026,1.681-5.717,6.053-5.717h7.062C188.308,702.673,186.626,700.318,182.591,700.318z
		 M188.644,708.389h-7.734c-3.026,0-4.371,2.354-4.371,4.372s1.682,4.035,5.044,4.035
		C185.281,716.796,188.644,714.441,188.644,708.389z"/>
	<path fill="#FFFFFF" d="M195.032,698.974h1.346l0.336,3.362c1.009-2.689,3.363-3.698,6.053-3.698c5.381,0,7.398,4.035,7.398,9.079
		v10.424h-1.682v-10.424c0-3.699-1.345-7.398-5.717-7.398c-2.689,0-5.717,1.682-5.717,6.39v11.433h-2.018V698.974z"/>
	<path fill="#FFFFFF" d="M219.244,722.849c1.009,2.018,4.707,2.354,5.044,0c0-1.682-2.018-2.018-3.363-1.682l-0.672-0.673
		l0.672-2.018c-4.707-0.672-7.062-5.044-7.062-9.751c0-5.044,2.354-9.752,8.07-9.752c3.026,0,5.717,1.682,6.726,4.708l-1.345,0.672
		c-1.009-2.689-3.026-4.035-5.381-4.035c-4.371,0-6.389,4.372-6.389,8.407s1.682,8.07,6.389,8.07c2.354,0,4.372-0.673,5.381-4.372
		l1.681,0.337c-1.009,3.362-3.362,5.044-6.725,5.38l-0.337,1.345c2.354,0,4.035,1.346,4.035,3.026
		c-0.336,3.699-5.716,4.035-7.397,0.673L219.244,722.849z"/>
	<path fill="#FFFFFF" d="M239.42,700.318c-2.018,0-4.035,0.673-5.381,2.018l-0.672-1.345c1.681-1.682,4.035-2.354,6.389-2.354
		c4.035,0,7.397,1.681,7.397,8.07v8.742v2.69h-1.345l-0.336-4.035c-1.009,3.026-4.372,4.371-7.062,4.371
		c-4.372,0-6.39-3.026-6.39-5.716c0-3.026,1.682-5.717,6.053-5.717h7.398C245.473,702.673,243.791,700.318,239.42,700.318z
		 M245.473,708.389h-7.734c-3.026,0-4.371,2.354-4.371,4.372s1.681,4.035,5.044,4.035
		C242.447,716.796,245.473,714.441,245.473,708.389z"/>
	<path fill="#FFFFFF" d="M259.259,708.726c0-5.044,2.354-9.752,8.07-9.752c3.026,0,5.717,1.682,6.726,4.708l-1.345,0.672
		c-1.009-2.689-3.026-4.035-5.381-4.035c-4.371,0-6.389,4.372-6.389,8.407s1.682,8.07,6.389,8.07c2.354,0,4.372-0.673,5.381-4.372
		l1.681,0.337c-1.009,3.362-3.362,5.38-7.062,5.38C261.614,718.477,259.259,713.77,259.259,708.726z"/>
	<path fill="#FFFFFF" d="M293.222,708.726c0,5.044-2.354,9.751-8.07,9.751s-8.07-4.707-8.07-9.751s2.354-9.752,8.07-9.752
		C290.868,698.638,293.222,703.345,293.222,708.726z M285.152,716.796c4.708,0,6.389-4.372,6.389-8.407s-1.681-8.406-6.389-8.406
		s-6.389,4.371-6.389,8.406S280.444,716.796,285.152,716.796z"/>
	<path fill="#FFFFFF" d="M297.593,698.974h1.345v4.035c1.01-2.69,2.69-4.371,5.717-4.371c2.69,0,5.044,1.345,6.053,5.044
		c1.009-3.699,3.363-5.044,6.053-5.044c5.381,0,6.39,4.371,6.39,8.742v10.425h-1.682V707.38c0-3.698-0.673-7.397-5.044-7.397
		c-3.699,0-5.38,3.362-5.38,7.397v10.425h-1.682V707.38c0-5.716-2.354-7.397-5.044-7.397c-3.026,0-5.381,2.69-5.381,7.397v10.425
		h-1.681v-18.831H297.593z"/>
	<path fill="#FFFFFF" d="M355.431,706.035V690.23h2.018v27.91h-2.018l-16.478-25.22v9.415v15.805h-2.018v-27.91h2.018l16.478,25.557
		V706.035z"/>
	<path fill="#FFFFFF" d="M376.279,714.105c-1.345,3.026-4.035,4.371-6.725,4.371c-5.717,0-8.07-4.707-8.07-9.751
		s2.354-9.752,8.07-9.752c5.716,0,8.07,5.38,7.733,10.761h-14.123c0.337,4.035,2.018,7.397,6.39,7.397
		c2.354,0,4.371-1.009,5.38-3.362L376.279,714.105z M375.607,708.053c0-3.699-2.018-7.734-6.053-7.734s-6.053,4.035-6.053,7.734
		H375.607z"/>
	<path fill="#FFFFFF" d="M397.127,708.726c0,5.044-2.354,9.751-8.07,9.751s-8.07-4.707-8.07-9.751s2.354-9.752,8.07-9.752
		C394.437,698.638,397.127,703.345,397.127,708.726z M388.721,716.796c4.707,0,6.389-4.372,6.389-8.407s-1.682-8.406-6.389-8.406
		c-4.708,0-6.39,4.371-6.39,8.406S384.349,716.796,388.721,716.796z"/>
	<path fill="#FFFFFF" d="M402.507,698.974v4.371c1.009-2.689,3.363-4.707,6.39-4.707c5.716,0,8.07,4.707,8.07,9.751
		s-2.354,9.752-8.07,9.752c-3.026,0-5.044-1.682-6.39-4.035v12.778h-1.681v-27.91H402.507z M409.233,717.132
		c4.708,0,6.389-4.371,6.389-8.406s-1.681-8.407-6.389-8.407s-6.389,4.708-6.389,8.743
		C402.844,713.433,405.198,717.132,409.233,717.132z"/>
	<path fill="#FFFFFF" d="M423.356,718.141h-1.682v-27.91h1.682V718.141z"/>
	<path fill="#FFFFFF" d="M435.461,700.318c-2.018,0-4.035,0.673-5.38,2.018l-0.673-1.345c1.682-1.682,4.035-2.354,6.389-2.354
		c4.035,0,7.398,1.681,7.398,8.07v8.742v2.69h-1.346l-0.336-4.035c-1.009,3.026-4.371,4.371-7.062,4.371
		c-4.371,0-6.389-3.026-6.389-5.716c0-3.026,1.681-5.717,6.053-5.717h7.733C441.514,702.673,439.496,700.318,435.461,700.318z
		 M441.514,708.389h-7.734c-3.026,0-4.371,2.354-4.371,4.372s1.682,4.035,5.044,4.035
		C438.152,716.796,441.514,714.441,441.514,708.389z"/>
	<path fill="#FFFFFF" d="M459.336,703.682c0-3.026-3.026-3.363-5.381-3.363c-3.025,0-5.044,1.346-5.044,3.699
		c0,3.026,2.69,3.362,5.717,3.362c3.699,0.337,6.726,1.009,6.726,5.381c0,4.035-3.363,5.716-7.062,5.716
		c-3.699,0-7.398-1.681-7.398-5.716h1.682c0,2.689,3.026,4.035,5.717,4.035c2.689,0,5.38-1.009,5.38-4.035
		c0-3.363-3.362-3.363-6.053-3.699c-3.026-0.336-6.389-0.673-6.389-5.044c0-3.699,3.362-5.38,6.725-5.38
		c3.363,0,7.063,1.009,7.063,5.044H459.336z"/>
	<path fill="#FFFFFF" d="M465.389,693.93v-3.026h1.682v3.026H465.389z M465.389,718.141V699.31h1.682v18.831H465.389z"/>
	<path fill="#FFFFFF" d="M479.176,700.318c-2.018,0-4.035,0.673-5.381,2.018l-0.672-1.345c1.681-1.682,4.035-2.354,6.389-2.354
		c4.035,0,7.397,1.681,7.397,8.07v8.742v2.69h-1.345l-0.336-4.035c-1.01,3.026-4.372,4.371-7.063,4.371
		c-4.371,0-6.389-3.026-6.389-5.716c0-3.026,1.682-5.717,6.053-5.717h7.734C484.892,702.673,483.211,700.318,479.176,700.318z
		 M485.229,708.389h-7.734c-3.026,0-4.371,2.354-4.371,4.372s1.681,4.035,5.044,4.035
		C481.865,716.796,485.229,714.441,485.229,708.389z"/>
	<path fill="#FFFFFF" d="M109.958,700.318c-2.018,0-4.035,0.673-5.38,2.018l-0.673-1.345c1.682-1.682,4.035-2.354,6.389-2.354
		c4.035,0,7.398,1.681,7.398,8.07v8.742v2.69h-1.346l-0.336-4.035c-1.009,3.026-4.371,4.371-7.062,4.371
		c-4.371,0-6.389-3.026-6.389-5.716c0-3.026,1.681-5.717,6.053-5.717h7.733C116.011,702.673,113.993,700.318,109.958,700.318z
		 M116.011,708.389h-7.734c-3.026,0-4.371,2.354-4.371,4.372s1.682,4.035,5.044,4.035
		C112.649,716.796,116.011,714.441,116.011,708.389z M106.932,690.567h2.018l2.69,4.707l0,0h-1.682L106.932,690.567L106.932,690.567
		z"/>
</g>
<g>
	<path fill="#FFFFFF" d="M98.189,521.427h-9.415l-28.246,70.278v1.346H71.96l7.062-17.822h29.255l7.062,17.822h11.434v-1.009
		L98.189,521.427L98.189,521.427z M103.57,565.141H83.394l5.716-16.813l4.372-14.123l4.371,14.123L103.57,565.141z"/>
	<path fill="#FFFFFF" d="M199.405,522.099h-27.91v70.952h10.761v-22.53h16.813c15.468,0,22.529-12.441,22.529-24.211
		c0-7.062-2.354-13.45-6.726-17.821C211.174,524.116,205.793,522.099,199.405,522.099z M210.837,546.31
		c0,7.062-3.698,14.123-11.769,14.123h-16.813v-28.246h17.149c3.026,0,5.717,1.009,7.734,3.026
		C209.492,537.903,210.837,541.603,210.837,546.31z"/>
	<path fill="#FFFFFF" d="M296.921,521.427h-9.416l-28.246,70.278v1.346h11.434l7.062-17.822h29.254l7.063,17.822h11.433v-1.009
		L296.921,521.427L296.921,521.427z M302.301,565.141h-20.176l5.717-16.813l4.371-14.123l4.371,14.123L302.301,565.141z"/>
	<path fill="#FFFFFF" d="M414.613,569.849c-4.035,11.769-11.769,14.459-17.485,14.459c-9.079,0-19.167-7.062-19.167-26.564
		c0-12.105,5.044-26.229,19.167-26.229c8.07,0,14.123,4.371,17.149,12.777v0.337l8.743-3.026v-0.673l0,0
		c-4.035-12.441-13.787-19.503-26.229-19.503c-22.193,0-29.928,19.839-29.928,36.652c0,22.866,11.433,36.989,29.928,36.989
		c8.742,0,20.512-3.699,26.9-20.849v-1.009l-9.415-3.026L414.613,569.849z"/>
	<polygon fill="#FFFFFF" points="517.51,522.099 517.51,564.468 518.855,580.272 511.457,566.149 483.211,522.436 483.211,522.099 
		471.778,522.099 471.778,593.051 482.874,593.051 482.874,554.044 481.865,536.895 489.6,551.018 516.837,592.714 516.837,593.051 
		528.27,593.051 528.27,522.099 	"/>
</g>
<g>
	<circle fill="#FFFFFF" cx="378.296" cy="157.925" r="5.044"/>
	<path fill="#FFFFFF" d="M236.057,446.104c5.044-19.504,29.255-40.016,72.969-62.545c40.688-20.848,66.244-74.65,70.952-85.411
		c1.009-2.354,0.336-5.044-2.018-6.389s-5.044-1.009-6.726,1.009c-4.035,4.708-8.742,9.079-13.114,13.114
		c-22.193,20.512-49.095,35.98-77.677,45.396v-0.336l0.337-1.345c0.336-1.682,1.009-3.026,1.681-4.708
		c29.255-9.415,55.483-24.883,78.014-45.731c39.006-35.98,62.881-84.402,67.252-137.196c0.673-8.743,6.053-16.141,14.123-19.839
		l11.097-5.044l-12.105-1.682c-12.105-1.681-24.547-1.681-36.652,0c-33.29,5.044-62.545,22.53-82.721,49.431
		c-12.105,16.477-34.972,21.857-53.802,13.114c-56.156-25.892-97.181-74.986-112.648-134.505l-2.69-10.424l-4.035,10.088
		c-10.424,25.556-15.805,52.794-15.805,80.704c0,55.82,21.521,108.613,60.864,148.628c2.018,2.018,2.689,4.708,2.354,7.398
		s-2.018,5.044-4.371,6.389c-20.176,10.76-42.033,17.822-64.899,21.185l-11.433,1.681l10.424,5.044
		c28.919,14.123,59.855,21.185,92.137,21.185c5.044,0,10.088-0.336,15.468-0.672c-4.035,5.38-8.406,11.097-14.459,16.813
		l-0.337,0.336c-8.742,7.734-17.485,18.831-18.494,19.839c-9.752,11.77-18.494,24.883-25.556,38.67l-0.673,1.009l-8.406,15.132
		H59.855v6.726h108.949l9.752-17.485l1.682-2.69c1.009-1.682,2.018-3.699,2.689-5.044l0,0l0.673-1.009
		c6.389-11.097,13.451-21.521,21.185-30.937c1.682-2.018,9.752-11.769,17.822-19.167l0.336-0.336
		c7.398-7.062,12.778-14.123,17.486-20.176c10.088-13.45,18.158-24.211,45.059-30.6c-0.336,0.672-0.672,1.009-1.345,2.018
		s-1.682,3.026-4.371,7.062c-0.673,1.009-1.346,2.354-2.018,3.362c-1.346,2.354-2.69,5.044-3.363,7.734l-0.336,1.345
		c-1.009,2.69-1.345,5.38-1.345,7.734c0,0.673,0,1.009,0,1.009v5.044l4.707-1.345c31.945-9.079,61.536-25.893,86.084-48.422
		c1.681-1.345,3.362-3.026,5.044-4.708c-10.088,19.167-31.945,55.147-61.873,70.616c-47.413,24.211-71.96,46.068-77.004,68.261
		c0,0-0.336,2.018-0.673,3.362c-0.336,1.346-0.672,4.035-0.672,4.035h301.292v-6.725H236.057L236.057,446.104z M152.663,80.249
		c18.495,54.811,58.847,99.87,111.977,124.417c21.856,10.088,48.421,3.699,62.545-15.468c19.167-25.556,46.74-42.033,78.013-46.741
		c3.026-0.336,6.053-0.672,9.079-1.009c-17.485,6.389-21.857,18.158-27.237,33.626c-10.761,30.264-27.237,75.659-158.044,131.143
		c-6.725,2.69-13.786,5.38-21.521,7.397c1.682-2.354,3.026-5.38,4.035-8.743c2.354-8.407,2.354-16.813-2.69-21.521
		C181.918,255.778,123.073,181.464,152.663,80.249z M194.361,312.271c4.371-2.354,7.397-6.726,8.406-11.77
		c0.673-5.044-0.672-10.088-4.371-13.45c-37.998-38.67-58.847-89.446-58.847-143.585c0-6.389,0.337-12.778,1.009-19.167
		c-4.707,80.031,42.033,138.205,65.572,162.079c3.362,3.363,3.698,10.088,1.681,17.486c-1.009,4.035-4.035,11.097-11.433,13.114l0,0
		c-7.398,1.681-14.796,3.363-21.857,4.708C181.246,318.659,187.971,315.633,194.361,312.271z M238.747,346.569
		c-7.397,0.672-14.459,1.009-21.185,1.009c-27.237,0-55.147-5.717-80.031-16.141c1.009-0.336,12.778-2.018,13.787-2.018
		c22.866-3.363,55.483-9.079,79.694-19.167C363.501,254.097,380.314,207.356,391.41,176.42
		c6.726-18.158,11.097-30.264,38.334-34.299c-5.044,5.044-8.07,12.105-8.742,19.167c-4.372,50.775-27.574,97.853-65.235,132.488
		c-19.84,18.158-42.706,32.281-67.925,41.36c1.345-2.018,3.698-6.053,6.389-9.751c1.345-1.682,2.018-4.035,1.009-5.717
		c-1.009-2.018-3.362-3.026-5.38-2.354C259.596,323.031,248.499,333.791,238.747,346.569z"/>
</g>
</svg>
