<?xml version="1.0" encoding="utf-8"?>
<!-- Generator: Adobe Illustrator 16.0.0, SVG Export Plug-In . SVG Version: 6.00 Build 0)  -->
<!DOCTYPE svg PUBLIC "-//W3C//DTD SVG 1.1//EN" "http://www.w3.org/Graphics/SVG/1.1/DTD/svg11.dtd">
<svg version="1.1" id="Layer_1" xmlns="http://www.w3.org/2000/svg" xmlns:xlink="http://www.w3.org/1999/xlink" x="0px" y="0px"
	 width="79.764px" height="276.058px" viewBox="0 0 79.764 276.058" enable-background="new 0 0 79.764 276.058"
	 xml:space="preserve">
<g>
	<defs>
		<rect id="SVGID_1_" width="79.764" height="276.058"/>
	</defs>
	<clipPath id="SVGID_2_">
		<use xlink:href="#SVGID_1_"  overflow="visible"/>
	</clipPath>
	<path clip-path="url(#SVGID_2_)" fill="#F8E82B" d="M24.717,267.943c-1.859-14.064-6.01-27.627-10.119-41.162
		c-3.952-13.008-7.361-26.076-9.747-39.469C2.358,173.3,0.76,159.115,0.219,144.89c-0.489-12.855-0.276-25.798,1.85-38.509
		c1.902-11.362,4.722-22.504,9.196-33.143c4.35-10.344,9.708-20.211,15.983-29.514c6.582-9.754,13.99-18.843,21.465-27.916
		c2.413-2.931,4.814-5.9,7.037-8.994c0,0,18.48-18.096,22.737,4.69c4.258,22.785-3.126,24.714-7.802,30.175
		c-2.26,2.635-4.554,5.243-6.84,7.856c-1.055,1.207-2.109,2.412-3.154,3.627c-0.522,0.607-1.045,1.211-1.563,1.82
		c-0.104,0.123-0.717,0.856-0.95,1.135c-3.927,4.769-7.637,9.705-10.951,14.922c-3.354,5.271-6.407,10.742-9.092,16.387
		c-0.016,0.029-0.025,0.048-0.039,0.076c-0.195,0.427-0.391,0.857-0.582,1.285c-0.317,0.709-0.633,1.418-0.938,2.131
		c-0.608,1.425-1.206,2.857-1.769,4.3c-1.11,2.852-2.153,5.733-3.054,8.659c-0.941,3.049-1.79,6.131-2.435,9.257
		c-0.042,0.209-0.181,0.965-0.242,1.295c-0.065,0.403-0.13,0.807-0.195,1.211c-0.223,1.438-0.43,2.873-0.6,4.319
		c-0.722,6.092-1.048,12.232-0.992,18.367c0.032,3.244,0.136,6.484,0.34,9.724c0.033,0.509,0.068,1.021,0.104,1.528
		c0.031,0.379,0.091,1.146,0.109,1.326c0.135,1.506,0.279,3.014,0.445,4.516c0.696,6.295,1.621,12.564,2.765,18.794
		c2.245,12.247,5.175,24.356,8.409,36.378c1.748,6.494,4.101,12.766,6.076,19.189c2.476,8.045,4.515,16.244,4.823,24.693
		c0.289,7.887-2.348,17.76-10.633,20.76c-3.406,1.234-7.038,1.164-9.765-0.771C27.282,273.271,25.113,270.939,24.717,267.943"/>
</g>
</svg>
