<?xml version="1.0" encoding="utf-8"?>
<!-- Generator: Adobe Illustrator 16.0.0, SVG Export Plug-In . SVG Version: 6.00 Build 0)  -->
<!DOCTYPE svg PUBLIC "-//W3C//DTD SVG 1.1//EN" "http://www.w3.org/Graphics/SVG/1.1/DTD/svg11.dtd">
<svg version="1.1" id="Layer_1" xmlns="http://www.w3.org/2000/svg" xmlns:xlink="http://www.w3.org/1999/xlink" x="0px" y="0px"
	 width="231.926px" height="281.036px" viewBox="0 0 231.926 281.036" enable-background="new 0 0 231.926 281.036"
	 xml:space="preserve">
<g>
	<defs>
		<rect id="SVGID_1_" x="1.387" y="1.138" transform="matrix(1 0.01 -0.01 1 1.4094 -1.1514)" width="229.154" height="278.761"/>
	</defs>
	<clipPath id="SVGID_2_">
		<use xlink:href="#SVGID_1_"  overflow="visible"/>
	</clipPath>
	<path clip-path="url(#SVGID_2_)" fill="#F8E82B" d="M3.262,174.464c0.021-0.229,0.035-0.461,0.063-0.688
		c0.961-8.513,3.428-17.751,8.78-24.589c3.512-4.485,7.556-8.502,11.967-12.103c0.204-0.31,0.406-0.62,0.61-0.924
		c3.321-4.932,7.136-9.876,11.756-13.68c6.275-5.162,12.736-7.867,20.307-10.813c7.161-2.787,14.427-5.284,21.669-7.845
		c3.778-1.333,7.551-2.678,11.293-4.107c1.278-0.486,2.551-0.98,3.822-1.486c0.513-0.224,3.25-1.361,3.888-1.644
		c6.871-3.058,13.619-6.507,19.8-10.814c0.437-0.303,1.928-1.422,2.163-1.579c0.252-0.201,0.505-0.391,0.752-0.597
		c1.393-1.157,2.767-2.337,4.077-3.587c1.323-1.265,2.625-2.555,3.85-3.913c0.622-0.691,1.241-1.381,1.836-2.091
		c0.117-0.141,0.326-0.408,0.535-0.678c2.329-3.16,4.452-6.47,6.252-9.959c0.685-1.327,1.345-2.664,1.973-4.02
		c0.336-0.728,1.602-3.609,1.521-3.395c2.776-6.543,5.421-13.159,8.553-19.543c7.088-14.45,17.729-27.431,33.609-32.368
		c15.431-4.795,38.467-1.987,45.848,14.71c7.18,16.234,1.879,32.523-5.366,47.711c-2.063,4.324-4.359,8.527-6.538,12.792
		c-0.979,1.916-1.953,3.835-2.835,5.795c-0.008,0.017-0.013,0.031-0.021,0.048c-0.055,0.147-0.125,0.333-0.214,0.566
		c-0.382,0.995-0.767,1.99-1.096,3.003c-0.639,1.975-1.21,3.979-1.613,6.019c-0.059,0.539-0.206,1.701-0.223,2.033
		c-0.061,1.201-0.104,2.397-0.089,3.6c0.024,2.572,0.107,5.144,0.326,7.705c0.078,0.923,0.165,1.847,0.257,2.768
		c0.076,0.526,0.284,2.138,0.317,2.362c1.587,10.083,4.524,19.775,6.717,29.716c2.026,9.188,3.351,18.666,3.547,28.084
		c0.377,18.043-3.244,35.915-11.082,52.188c-8.063,16.75-20.822,30.268-35.874,40.956c-1.59,1.129-3.382,1.733-5.229,1.914
		c-2.002,1.094-4.067,2.102-6.168,3.043c-2.544,1.338-5.192,2.542-7.952,3.643c-11.409,4.545-23.97,6.842-36.441,6.753
		c-26.771,1.898-54.92-3.437-77.604-18.028c-14.027-9.024-26.496-21.688-33.06-37.228C1.118,208.028-1.426,191.012,3.262,174.464"/>
</g>
</svg>
