<?xml version="1.0" encoding="utf-8"?>
<!-- Generator: Adobe Illustrator 16.0.0, SVG Export Plug-In . SVG Version: 6.00 Build 0)  -->
<!DOCTYPE svg PUBLIC "-//W3C//DTD SVG 1.1//EN" "http://www.w3.org/Graphics/SVG/1.1/DTD/svg11.dtd">
<svg version="1.1" id="Layer_1" xmlns="http://www.w3.org/2000/svg" xmlns:xlink="http://www.w3.org/1999/xlink" x="0px" y="0px"
	 width="365.143px" height="423.344px" viewBox="0 0 365.143 423.344" enable-background="new 0 0 365.143 423.344"
	 xml:space="preserve">
<g>
	<defs>
		<rect id="SVGID_1_" width="365.143" height="423.344"/>
	</defs>
	<clipPath id="SVGID_2_">
		<use xlink:href="#SVGID_1_"  overflow="visible"/>
	</clipPath>
	<path clip-path="url(#SVGID_2_)" fill="#0B2F40" d="M364.678,36.462c-2.265-16.859-14.864-31.071-31.537-35.026
		c-14.559-3.453-30.438-0.515-43.257,7.064c-6.634,3.921-12.281,8.96-17.512,14.444c-8.143,5.649-15.769,11.692-22.513,16.534
		c-5.598,4.019-11.321,7.89-17.354,11.232c-2.351,1.303-4.752,2.482-7.18,3.624c0.472-0.235-1.439,0.602-2.559,1.001
		c-2.068,0.737-4.17,1.386-6.286,1.969c-13.894,3.827-28.362,4.662-42.486,7.295c-16.207,3.022-31.021,9.211-43.855,19.631
		c-11.202,9.095-19.887,21.663-26.239,34.526c-6.924,14.018-11.71,28.868-16.515,43.701c-2.35,7.25-4.795,14.458-7.583,21.553
		c-0.07,0.179-0.13,0.331-0.188,0.479c-0.311,0.702-0.622,1.404-0.941,2.102c-0.727,1.591-1.482,3.168-2.271,4.729
		c-1.836,3.636-3.853,7.174-6.067,10.593c-0.939,1.452-1.911,2.88-2.91,4.291c-0.499,0.705-1.009,1.401-1.515,2.101
		c-0.045,0.061-0.276,0.366-0.509,0.675c-0.507,0.616-1.962,2.428-2.313,2.852c-1.475,1.778-2.982,3.529-4.51,5.261
		c-4.984,5.654-10.197,11.098-15.348,16.598c-10.715,11.443-21.271,23.396-29.252,36.957c-8.303,14.11-13.461,29.704-13.971,46.124
		c-0.071,2.26,0.343,4.496,1.138,6.605c0.532,10.414,5.034,20.163,11.329,28.44c8.112,10.668,16.392,21.212,24.588,31.815
		c6.639,8.588,12.877,18.218,21.06,25.445c9.913,8.756,21.846,14.129,35.224,14.263c20.773,0.209,40.16-11.456,54.853-25.729
		c6.961-4.007,13.879-8.079,20.682-12.319c9.043-5.639,16.727-12.244,22.736-20.075c13.271-11.599,23.122-27.688,30.311-44.078
		c11.557-26.344,18.073-54.231,27.443-81.338c1.114-3.221,2.275-6.426,3.5-9.606c0.555-1.441,1.153-2.868,1.708-4.311
		c0.271-0.624,0.541-1.248,0.82-1.87c2.759-6.159,5.844-12.18,9.358-17.944c1.765-2.894,3.638-5.723,5.621-8.471
		c0.328-0.453,0.662-0.902,0.995-1.352c0.027-0.031,0.048-0.055,0.077-0.09c1.352-1.556,2.627-3.18,3.987-4.731
		c5.06-5.774,10.514-11.185,15.981-16.568c11.793-11.612,23.075-23.378,32.629-36.958c9.076-12.9,16.054-27.111,21.532-41.88
		c1.486-4.005,2.939-8.328,4.235-12.843C360.41,69.743,366.998,53.726,364.678,36.462"/>
</g>
</svg>
