<?xml version="1.0" encoding="utf-8"?>
<!-- Generator: Adobe Illustrator 16.0.0, SVG Export Plug-In . SVG Version: 6.00 Build 0)  -->
<!DOCTYPE svg PUBLIC "-//W3C//DTD SVG 1.1//EN" "http://www.w3.org/Graphics/SVG/1.1/DTD/svg11.dtd">
<svg version="1.1" id="Layer_1" xmlns="http://www.w3.org/2000/svg" xmlns:xlink="http://www.w3.org/1999/xlink" x="0px" y="0px"
	 width="598.224px" height="571.027px" viewBox="0 0 598.224 571.027" enable-background="new 0 0 598.224 571.027"
	 xml:space="preserve">
<g>
	<defs>
		<rect id="SVGID_1_" width="598.224" height="571.027"/>
	</defs>
	<clipPath id="SVGID_2_">
		<use xlink:href="#SVGID_1_"  overflow="visible"/>
	</clipPath>
	<path clip-path="url(#SVGID_2_)" fill="#E51560" d="M575.946,90.693c-6.859-8.52-14.681-16.201-22.326-24.003
		c-8.562-8.738-16.97-17.669-25.742-26.197c-2.441-2.373-5.002-4.636-7.68-6.735c-0.807-5.566-4.139-10.609-9.317-14.384
		C471.253-9.519,418.734-3.12,377.809,19.086c-40.149,21.783-69.728,57.117-103.276,87.187c-3.955,3.546-7.979,7.018-12.093,10.379
		c-1.143,0.934-2.314,1.833-3.45,2.774c-0.147,0.122-0.262,0.218-0.357,0.299c-0.177,0.13-0.372,0.274-0.602,0.444
		c-2.37,1.757-4.743,3.506-7.163,5.193c-9.141,6.374-18.729,12.088-28.533,17.376c-19.705,10.628-40.284,19.496-60.645,28.765
		c-37.92,17.263-76.293,37.2-104.45,68.752c-15.009,16.817-26.493,36.07-33.147,57.669c-6.795,22.06-8.355,45.6-9.001,68.55
		c-0.315,11.159-0.4,22.325-0.804,33.481c-0.192,5.273-0.45,10.544-0.84,15.808c-0.194,2.622-0.42,5.241-0.686,7.856
		c-0.147,1.45-0.315,2.898-0.476,4.348c-0.038,0.336-0.068,0.614-0.093,0.851c-0.04,0.243-0.088,0.536-0.144,0.889
		C8.53,451.817-0.204,473.47,0.003,496.093c0.228,24.859,13.298,46.602,35.503,57.959c20.395,10.431,45.005,15.564,67.73,16.803
		c12.43,0.678,25.651-0.589,37.384-4.901c11.419-4.195,21.557-10.284,31.647-16.966c9.134-6.048,18.344-11.759,28.344-16.285
		c0.67-0.303,1.344-0.594,2.017-0.888c0.41-0.169,0.954-0.392,1.206-0.486c2.676-0.999,5.33-2.046,8.027-2.988
		c5.411-1.891,10.895-3.568,16.42-5.094c21.21-5.854,42.947-9.44,64.449-14.012c20.437-4.344,40.292-10.135,59.462-18.51
		c18.326-8.006,35.888-19.165,49.52-33.94c15.861-17.19,25.293-38.232,31.937-60.435c6.04-20.187,10.611-40.683,18.414-60.314
		c0.436-1.096,1.907-4.567,1.638-3.978c0.868-1.985,1.744-3.966,2.654-5.935c2.105-4.559,4.331-9.063,6.669-13.507
		c4.677-8.891,9.808-17.542,15.365-25.911c2.777-4.185,5.66-8.3,8.647-12.337c0.638-0.862,2.747-3.597,2.65-3.496
		c1.507-1.903,3.024-3.796,4.575-5.663c6.416-7.729,13.226-15.13,20.398-22.162c7.172-7.032,14.706-13.693,22.571-19.941
		c0.437-0.346,1.475-1.142,1.828-1.414c0.38-0.286,0.757-0.574,1.138-0.858c1.976-1.474,3.972-2.921,5.965-4.373
		c3.795-2.765,7.586-5.533,11.313-8.39c16.941-12.983,33.989-28.372,39.103-50.066C602.551,132.66,591.492,110.006,575.946,90.693
		 M500.021,154.38c-0.08-0.913,0.031-1.634,0.493-1.853c0.01,0,0.02,0.001,0.029,0.001
		C500.44,152.681,500.143,153.869,500.021,154.38"/>
</g>
</svg>
